<mxfile host="app.diagrams.net" modified="2020-11-19T10:41:35.796Z" agent="5.0 (Macintosh; Intel Mac OS X 11_0_0) AppleWebKit/537.36 (KHTML, like Gecko) Chrome/86.0.4240.198 Safari/537.36" etag="iXuQCWLkKFLiowv-iGNf" version="13.10.0" type="github">
  <diagram id="-Op8YGLnF7q3TqqSKgFO" name="Page-1">
    <mxGraphModel dx="946" dy="614" grid="0" gridSize="10" guides="1" tooltips="1" connect="1" arrows="1" fold="1" page="1" pageScale="1" pageWidth="827" pageHeight="1169" math="0" shadow="0">
      <root>
        <mxCell id="0" />
        <mxCell id="1" parent="0" />
        <mxCell id="JfqZ3MtoHXKMV2jaMArE-13" value="" style="rounded=1;whiteSpace=wrap;html=1;" vertex="1" parent="1">
          <mxGeometry x="371" y="102" width="158" height="263" as="geometry" />
        </mxCell>
        <mxCell id="JfqZ3MtoHXKMV2jaMArE-14" style="edgeStyle=orthogonalEdgeStyle;rounded=0;orthogonalLoop=1;jettySize=auto;html=1;exitX=1;exitY=0.5;exitDx=0;exitDy=0;entryX=0;entryY=0.25;entryDx=0;entryDy=0;" edge="1" parent="1" source="JfqZ3MtoHXKMV2jaMArE-2" target="JfqZ3MtoHXKMV2jaMArE-8">
          <mxGeometry relative="1" as="geometry" />
        </mxCell>
        <mxCell id="JfqZ3MtoHXKMV2jaMArE-2" value="" style="rounded=1;whiteSpace=wrap;html=1;" vertex="1" parent="1">
          <mxGeometry x="63" y="136" width="120" height="60" as="geometry" />
        </mxCell>
        <mxCell id="JfqZ3MtoHXKMV2jaMArE-3" value="collect-agent" style="rounded=1;whiteSpace=wrap;html=1;" vertex="1" parent="1">
          <mxGeometry x="103" y="173" width="80" height="23" as="geometry" />
        </mxCell>
        <mxCell id="JfqZ3MtoHXKMV2jaMArE-15" style="edgeStyle=orthogonalEdgeStyle;rounded=0;orthogonalLoop=1;jettySize=auto;html=1;exitX=1;exitY=0.5;exitDx=0;exitDy=0;entryX=0;entryY=0.5;entryDx=0;entryDy=0;" edge="1" parent="1" source="JfqZ3MtoHXKMV2jaMArE-4" target="JfqZ3MtoHXKMV2jaMArE-8">
          <mxGeometry relative="1" as="geometry" />
        </mxCell>
        <mxCell id="JfqZ3MtoHXKMV2jaMArE-4" value="" style="rounded=1;whiteSpace=wrap;html=1;" vertex="1" parent="1">
          <mxGeometry x="63" y="202" width="120" height="60" as="geometry" />
        </mxCell>
        <mxCell id="JfqZ3MtoHXKMV2jaMArE-5" value="collect-agent" style="rounded=1;whiteSpace=wrap;html=1;" vertex="1" parent="1">
          <mxGeometry x="103" y="239" width="80" height="23" as="geometry" />
        </mxCell>
        <mxCell id="JfqZ3MtoHXKMV2jaMArE-16" style="edgeStyle=orthogonalEdgeStyle;rounded=0;orthogonalLoop=1;jettySize=auto;html=1;exitX=1;exitY=0.5;exitDx=0;exitDy=0;entryX=0;entryY=0.75;entryDx=0;entryDy=0;" edge="1" parent="1" source="JfqZ3MtoHXKMV2jaMArE-6" target="JfqZ3MtoHXKMV2jaMArE-8">
          <mxGeometry relative="1" as="geometry" />
        </mxCell>
        <mxCell id="JfqZ3MtoHXKMV2jaMArE-6" value="" style="rounded=1;whiteSpace=wrap;html=1;" vertex="1" parent="1">
          <mxGeometry x="63" y="268" width="120" height="60" as="geometry" />
        </mxCell>
        <mxCell id="JfqZ3MtoHXKMV2jaMArE-7" value="collect-agent" style="rounded=1;whiteSpace=wrap;html=1;" vertex="1" parent="1">
          <mxGeometry x="103" y="305" width="80" height="23" as="geometry" />
        </mxCell>
        <mxCell id="JfqZ3MtoHXKMV2jaMArE-8" value="ETL" style="rounded=1;whiteSpace=wrap;html=1;" vertex="1" parent="1">
          <mxGeometry x="220" y="202" width="120" height="60" as="geometry" />
        </mxCell>
        <mxCell id="JfqZ3MtoHXKMV2jaMArE-9" value="storageB" style="rounded=1;whiteSpace=wrap;html=1;" vertex="1" parent="1">
          <mxGeometry x="391" y="202" width="120" height="60" as="geometry" />
        </mxCell>
        <mxCell id="JfqZ3MtoHXKMV2jaMArE-10" value="storageC" style="rounded=1;whiteSpace=wrap;html=1;" vertex="1" parent="1">
          <mxGeometry x="391" y="274" width="120" height="60" as="geometry" />
        </mxCell>
        <mxCell id="JfqZ3MtoHXKMV2jaMArE-11" value="storageA" style="rounded=1;whiteSpace=wrap;html=1;" vertex="1" parent="1">
          <mxGeometry x="391" y="130" width="120" height="60" as="geometry" />
        </mxCell>
        <mxCell id="JfqZ3MtoHXKMV2jaMArE-12" value="compute" style="rounded=1;whiteSpace=wrap;html=1;" vertex="1" parent="1">
          <mxGeometry x="388" y="410" width="120" height="60" as="geometry" />
        </mxCell>
        <mxCell id="JfqZ3MtoHXKMV2jaMArE-19" value="" style="shape=flexArrow;endArrow=classic;html=1;" edge="1" parent="1">
          <mxGeometry width="50" height="50" relative="1" as="geometry">
            <mxPoint x="340" y="231.5" as="sourcePoint" />
            <mxPoint x="370" y="232" as="targetPoint" />
          </mxGeometry>
        </mxCell>
        <mxCell id="JfqZ3MtoHXKMV2jaMArE-20" value="" style="shape=flexArrow;endArrow=classic;html=1;entryX=0.25;entryY=0;entryDx=0;entryDy=0;exitX=0.25;exitY=1;exitDx=0;exitDy=0;" edge="1" parent="1" source="JfqZ3MtoHXKMV2jaMArE-13" target="JfqZ3MtoHXKMV2jaMArE-12">
          <mxGeometry width="50" height="50" relative="1" as="geometry">
            <mxPoint x="531" y="225.5" as="sourcePoint" />
            <mxPoint x="561" y="226" as="targetPoint" />
          </mxGeometry>
        </mxCell>
        <mxCell id="JfqZ3MtoHXKMV2jaMArE-21" value="" style="shape=flexArrow;endArrow=classic;html=1;exitX=0.75;exitY=0;exitDx=0;exitDy=0;entryX=0.75;entryY=1;entryDx=0;entryDy=0;" edge="1" parent="1" source="JfqZ3MtoHXKMV2jaMArE-12" target="JfqZ3MtoHXKMV2jaMArE-13">
          <mxGeometry width="50" height="50" relative="1" as="geometry">
            <mxPoint x="449" y="421" as="sourcePoint" />
            <mxPoint x="499" y="371" as="targetPoint" />
          </mxGeometry>
        </mxCell>
        <mxCell id="JfqZ3MtoHXKMV2jaMArE-24" value="" style="shape=flexArrow;endArrow=classic;html=1;exitX=1;exitY=0.5;exitDx=0;exitDy=0;entryX=0;entryY=0.5;entryDx=0;entryDy=0;" edge="1" parent="1" source="JfqZ3MtoHXKMV2jaMArE-13" target="JfqZ3MtoHXKMV2jaMArE-25">
          <mxGeometry width="50" height="50" relative="1" as="geometry">
            <mxPoint x="570" y="232" as="sourcePoint" />
            <mxPoint x="594" y="234" as="targetPoint" />
          </mxGeometry>
        </mxCell>
        <mxCell id="JfqZ3MtoHXKMV2jaMArE-25" value="展示" style="rounded=1;whiteSpace=wrap;html=1;" vertex="1" parent="1">
          <mxGeometry x="600" y="136.5" width="131" height="194" as="geometry" />
        </mxCell>
      </root>
    </mxGraphModel>
  </diagram>
</mxfile>
